<svg xmlns="http://www.w3.org/2000/svg" xmlns:xlink="http://www.w3.org/1999/xlink" xmlns:inkscape="http://www.inkscape.org/namespaces/inkscape" version="1.1" width="3000" height="3000" viewBox="0 0 3000 3000">
<defs>
<clipPath id="clip_1">
<path transform="matrix(1,0,0,-1,0,3000)" d="M0 3000H3000V0H0Z"/>
</clipPath>
</defs>
<g inkscape:groupmode="layer" inkscape:label="Layer 1">
<g clip-path="url(#clip_1)">
<path transform="matrix(1,0,0,-1,1523.5012,972.1786)" d="M0 0V-283.26C89.587-286.767 176.823-311.615 263.864-330.611L389.72-60.467C417.401-17.769 487.193-22.932 472.221-81.973L345.161-371.13C404.425-390.93 443.696-441.903 490.871-479.35 523.344-505.127 559.875-526.043 591.279-553.492L768.2-371.265C812.678-328.281 872.962-337.445 845.132-407.641 821.677-443.523 655.843-612.531 656.747-638.665 686.822-712.28 714.129-787.468 746.151-860.271 751.547-872.542 764.197-878.013 769.839-890.728 775.96-904.522 782.273-964.245 785.159-966.842L1047.376-846.105C1107.636-852.512 1099.947-909.843 1053.749-941.075 1011.643-969.541 894.346-1022.124 843.854-1042.516 805.855-1057.862 790.086-1069.42 754.647-1041.258 695.489-994.246 706.011-949.185 688.419-884.162 650.889-745.444 534.51-593.935 417.736-511.876 58.045-259.116-490.036-367.099-684.838-772.686-719.709-845.29-720.363-942.222-746.003-995.781-751.334-1006.917-796.236-1051.972-807.113-1056.446-833.987-1067.501-854.426-1060.963-879.748-1051.338-916.037-1037.544-1089.399-953.613-1113.436-933.078-1146.538-904.796-1148.267-856.23-1100.972-846.747L-832.556-973.587C-822.948-881.63-767.717-805.372-734.159-723.365-729.336-711.577-732.419-696.487-727.261-682.896-717.088-656.096-691.076-661.68-717.494-625.072-770.792-551.214-850.733-481.63-906.039-407.645-934.786-353.22-874.832-321.728-836.063-364.675L-639.551-567.49C-626.013-529.236-586.803-522.375-562.15-502.824-514.814-465.286-483.565-418.793-429.314-391.552L-427.191-382.666C-444.158-358.774-448.62-331.094-458.902-305.619-475.074-265.554-563.685-98.799-558.887-72.983-557.926-67.812-555.051-62.229-550.458-59.358-523.866-49.034-493.772-46.46-477.595-73.89L-345.06-350.946C-265.55-320.57-173.123-294.784-87.985-290.028V29.311C-87.985 43.579-76.419 55.145-62.151 55.145H-55.145C-24.689 55.145 0 30.456 0 0" fill="#212121"/>
<path transform="matrix(1,0,0,-1,1469.0792,1811.9652)" d="M0 0C139.561 29.117 238.9-146.731 99.953-248.841-2.638-324.234-149.79-192.303-91.924-77.271-78.262-50.113-30.216-6.304 0 0" fill="#212121"/>
</g>
</g>
</svg>
