<svg xmlns="http://www.w3.org/2000/svg" xmlns:xlink="http://www.w3.org/1999/xlink" xmlns:inkscape="http://www.inkscape.org/namespaces/inkscape" version="1.1" width="3000" height="3000" viewBox="0 0 3000 3000">
<defs>
<clipPath id="clip_1">
<path transform="matrix(1,0,0,-1,0,3000)" d="M0 3000H3000V0H0Z"/>
</clipPath>
</defs>
<g inkscape:groupmode="layer" inkscape:label="Layer 1">
<g clip-path="url(#clip_1)">
<path transform="matrix(1,0,0,-1,821.1854,2177.4468)" d="M0 0V-37.54H-22.524C-38.575-37.54-51.091-33.616-60.064-25.761-69.04-17.908-73.526-5.093-73.526 12.686V70.16H-91.131V106.923H-73.526V142.133H-29.255V106.923H-.259V70.16H-29.255V12.168C-29.255 7.852-28.219 4.745-26.148 2.848-24.077 .946-20.627 0-15.792 0Z" fill="#212121"/>
<path transform="matrix(1,0,0,-1,0,3000)" d="M915.939 785.013H871.668V929.476H915.939ZM874.904 951.353C869.985 955.924 867.525 961.579 867.525 968.311 867.525 975.212 869.985 980.952 874.904 985.527 879.823 990.098 886.166 992.388 893.932 992.388 901.525 992.388 907.783 990.098 912.702 985.527 917.621 980.952 920.081 975.212 920.081 968.311 920.081 961.579 917.621 955.924 912.702 951.353 907.783 946.778 901.525 944.493 893.932 944.493 886.166 944.493 879.823 946.778 874.904 951.353" fill="#212121"/>
<path transform="matrix(1,0,0,-1,1102.4719,2085.4097)" d="M0 0C10.097-10.963 15.145-26.02 15.145-45.178V-129.577H-28.867V-51.132C-28.867-41.468-31.371-33.96-36.375-28.608-41.383-23.261-48.114-20.582-56.568-20.582-65.027-20.582-71.758-23.261-76.762-28.608-81.77-33.96-84.27-41.468-84.27-51.132V-129.577H-128.541V14.886H-84.27V-4.272C-79.784 2.111-73.745 7.16-66.148 10.873-58.555 14.583-50.011 16.439-40.517 16.439-23.604 16.439-10.097 10.958 0 0" fill="#212121"/>
<path transform="matrix(1,0,0,-1,1351.3978,2214.9869)" d="M0 0-61.358 64.465V0H-73.008V191.582H-61.358V76.892L-1.036 140.58H15.275L-52.815 70.679 16.051 0Z" fill="#212121"/>
<path transform="matrix(1,0,0,-1,1507.8989,2199.8414)" d="M0 0C8.887 4.571 16.007 11.521 21.359 20.841 26.707 30.161 29.385 41.638 29.385 55.273 29.385 68.736 26.707 80.128 21.359 89.448 16.007 98.769 8.932 105.714 .129 110.289-8.673 114.86-18.167 117.149-28.349 117.149-38.535 117.149-47.985 114.86-56.698 110.289-65.416 105.714-72.45 98.769-77.798 89.448-83.15 80.128-85.824 68.736-85.824 55.273-85.824 41.638-83.194 30.161-77.927 20.841-72.665 11.521-65.674 4.571-56.957 0-48.243-4.575-38.794-6.861-28.608-6.861-18.426-6.861-8.891-4.575 0 0M-64.076-8.414C-74.606-2.549-82.846 5.865-88.801 16.828-94.756 27.786-97.733 40.602-97.733 55.273-97.733 69.772-94.715 82.498-88.672 93.461-82.632 104.42-74.303 112.789-63.688 118.573-53.073 124.354-41.209 127.247-28.09 127.247-14.976 127.247-3.151 124.354 7.378 118.573 17.904 112.789 26.148 104.464 32.103 93.591 38.058 82.717 41.035 69.942 41.035 55.273 41.035 40.602 38.013 27.786 31.973 16.828 25.93 5.865 17.605-2.549 6.99-8.414-3.625-14.284-15.493-17.217-28.608-17.217-41.727-17.217-53.551-14.284-64.076-8.414" fill="#212121"/>
<path transform="matrix(1,0,0,-1,0,3000)" d="M1621.939 785.013H1610.289V976.595H1621.939Z" fill="#212121"/>
<path transform="matrix(1,0,0,-1,1798.8916,2108.063)" d="M0 0C-4.919 8.628-11.61 15.056-20.064 19.287-28.523 23.515-37.669 25.631-47.507 25.631-57.345 25.631-66.451 23.515-74.821 19.287-83.194 15.056-90.01 8.628-95.273 0-100.54-8.633-103.344-19.158-103.688-31.585H6.602C7.12-19.158 4.919-8.633 0 0M17.734-41.164H-103.688C-103.344-53.766-100.581-64.38-95.403-73.009-90.225-81.642-83.409-88.113-74.95-92.426-66.496-96.742-57.26-98.898-47.248-98.898-33.442-98.898-21.877-95.492-12.556-88.672-3.236-81.855 2.629-72.58 5.049-60.841H17.217C14.454-75.169 7.378-86.774-4.013-95.662-15.404-104.554-29.817-108.995-47.248-108.995-60.367-108.995-72.102-106.063-82.458-100.192-92.814-94.327-100.928-85.913-106.794-74.95-112.664-63.992-115.597-51.177-115.597-36.505-115.597-21.836-112.708-9.062-106.924 1.812-101.143 12.686-93.073 21.011-82.717 26.795-72.361 32.576-60.541 35.469-47.248 35.469-33.786 35.469-22.095 32.576-12.168 26.795-2.245 21.011 5.307 13.333 10.485 3.754 15.663-5.825 18.252-16.141 18.252-27.185 18.252-33.397 18.078-38.058 17.734-41.164" fill="#212121"/>
<path transform="matrix(1,0,0,-1,1951.2512,2214.9869)" d="M0 0-61.358 64.465V0H-73.008V191.582H-61.358V76.892L-1.036 140.58H15.275L-52.815 70.679 16.052 0Z" fill="#212121"/>
<path transform="matrix(1,0,0,-1,2034.6148,2084.5035)" d="M0 0V-92.943C0-103.3 1.897-110.419 5.696-114.303 9.49-118.186 16.221-120.128 25.889-120.128H41.682V-130.483H24.077C11.82-130.483 2.803-127.595-2.977-121.811-8.762-116.029-11.65-106.406-11.65-92.943V0H-32.88V10.097H-11.65V45.824H0V10.097H41.682V0Z" fill="#212121"/>
<path transform="matrix(1,0,0,-1,0,3000)" d="M2144.641 785.013H2132.9913V925.593H2144.641ZM2131.955 959.638C2130.054 961.45 2129.107 963.91 2129.107 967.016 2129.107 969.949 2130.054 972.364 2131.955 974.265 2133.853 976.162 2136.183 977.113 2138.946 977.113 2141.704 977.113 2144.034 976.162 2145.936 974.265 2147.833 972.364 2148.783 969.949 2148.783 967.016 2148.783 963.91 2147.833 961.45 2145.936 959.638 2144.034 957.826 2141.704 956.919 2138.946 956.919 2136.183 956.919 2133.853 957.826 2131.955 959.638" fill="#212121"/>
<path transform="matrix(1,0,0,-1,2266.8372,2084.7623)" d="M0 0H-36.504V-130.225H-48.154V0H-69.384V10.355H-48.154V20.193C-48.154 34.861-44.445 45.779-37.022 52.943-29.603 60.104-17.435 63.688-.518 63.688V53.332C-13.98 53.332-23.345 50.743-28.608 45.565-33.875 40.387-36.504 31.929-36.504 20.193V10.355H0Z" fill="#212121"/>
<path transform="matrix(1,0,0,-1,1523.5012,838.08718)" d="M0 0V-283.259C89.587-286.766 176.823-311.615 263.864-330.611L389.72-60.466C417.401-17.769 487.193-22.932 472.221-81.973L345.161-371.13C404.425-390.93 443.696-441.903 490.871-479.35 523.344-505.127 559.875-526.043 591.279-553.492L768.2-371.265C812.678-328.281 872.962-337.445 845.132-407.64 821.677-443.523 655.843-612.531 656.747-638.665 686.822-712.28 714.129-787.468 746.151-860.271 751.547-872.542 764.197-878.013 769.839-890.728 775.96-904.522 782.273-964.245 785.159-966.842L1047.376-846.105C1107.636-852.512 1099.947-909.843 1053.749-941.075 1011.643-969.541 894.346-1022.124 843.854-1042.516 805.855-1057.862 790.086-1069.42 754.647-1041.257 695.489-994.246 706.011-949.185 688.419-884.162 650.889-745.444 534.51-593.935 417.736-511.876 58.045-259.116-490.036-367.099-684.838-772.686-719.709-845.289-720.363-942.222-746.003-995.781-751.334-1006.917-796.236-1051.972-807.113-1056.446-833.987-1067.501-854.426-1060.963-879.748-1051.338-916.037-1037.544-1089.399-953.613-1113.436-933.078-1146.538-904.796-1148.267-856.23-1100.972-846.747L-832.556-973.587C-822.948-881.63-767.717-805.372-734.159-723.365-729.336-711.577-732.419-696.486-727.261-682.896-717.088-656.096-691.076-661.68-717.494-625.072-770.792-551.214-850.733-481.63-906.039-407.644-934.786-353.22-874.832-321.728-836.063-364.675L-639.551-567.49C-626.013-529.236-586.803-522.374-562.15-502.824-514.814-465.286-483.565-418.793-429.314-391.552L-427.191-382.666C-444.158-358.773-448.62-331.093-458.902-305.619-475.074-265.554-563.685-98.798-558.887-72.982-557.926-67.812-555.051-62.229-550.458-59.357-523.866-49.034-493.772-46.46-477.595-73.89L-345.06-350.946C-265.55-320.57-173.123-294.784-87.985-290.027V29.312C-87.985 43.579-76.419 55.145-62.151 55.145H-55.145C-24.689 55.145 0 30.456 0 0" fill="#212121"/>
<path transform="matrix(1,0,0,-1,1469.0792,1677.8737)" d="M0 0C139.561 29.117 238.9-146.731 99.953-248.841-2.638-324.234-149.79-192.303-91.924-77.271-78.262-50.113-30.216-6.304 0 0" fill="#212121"/>
</g>
</g>
</svg>
