<svg xmlns="http://www.w3.org/2000/svg" xmlns:xlink="http://www.w3.org/1999/xlink" xmlns:inkscape="http://www.inkscape.org/namespaces/inkscape" version="1.1" width="3000" height="3000" viewBox="0 0 3000 3000">
<defs>
<clipPath id="clip_1">
<path transform="matrix(1,0,0,-1,0,3000)" d="M0 3000H3000V0H0Z"/>
</clipPath>
</defs>
<g inkscape:groupmode="layer" inkscape:label="Layer 1">
<g clip-path="url(#clip_1)">
<path transform="matrix(1,0,0,-1,447.7898,1601.1604)" d="M0 0V-58.322H-34.994C-59.932-58.322-79.377-52.226-93.316-40.021-107.262-27.822-114.232-7.912-114.232 19.709V109.004H-141.583V166.12H-114.232V220.823H-45.452V166.12H-.402V109.004H-45.452V18.905C-45.452 12.199-43.843 7.372-40.625 4.425-37.407 1.471-32.046 0-24.536 0Z" fill="#212121"/>
<path transform="matrix(1,0,0,-1,0,3000)" d="M595.001 1340.517H526.22V1564.959H595.001ZM531.248 1598.948C523.606 1606.05 519.784 1614.836 519.784 1625.294 519.784 1636.015 523.606 1644.933 531.248 1652.041 538.89 1659.143 548.745 1662.7 560.811 1662.7 572.608 1662.7 582.33 1659.143 589.973 1652.041 597.615 1644.933 601.436 1636.015 601.436 1625.294 601.436 1614.836 597.615 1606.05 589.973 1598.948 582.33 1591.84 572.608 1588.289 560.811 1588.289 548.745 1588.289 538.89 1591.84 531.248 1598.948" fill="#212121"/>
<path transform="matrix(1,0,0,-1,884.8044,1458.1687)" d="M0 0C15.687-17.032 23.53-40.423 23.53-70.188V-201.314H-44.849V-79.44C-44.849-64.425-48.739-52.761-56.513-44.446-64.293-36.137-74.751-31.977-87.887-31.977-101.028-31.977-111.486-36.137-119.26-44.446-127.041-52.761-130.925-64.425-130.925-79.44V-201.314H-199.706V23.128H-130.925V-6.637C-123.955 3.281-114.572 11.125-102.769 16.894-90.973 22.657-77.699 25.542-62.949 25.542-36.672 25.542-15.687 17.026 0 0" fill="#212121"/>
<path transform="matrix(1,0,0,-1,1271.5418,1659.4827)" d="M0 0-95.328 100.154V0H-113.428V297.647H-95.328V119.461L-1.609 218.409H23.731L-82.054 109.808 24.938 0Z" fill="#212121"/>
<path transform="matrix(1,0,0,-1,1514.6863,1635.9524)" d="M0 0C13.808 7.102 24.869 17.899 33.184 32.379 41.492 46.859 45.652 64.689 45.652 85.875 45.652 106.791 41.492 124.488 33.184 138.969 24.869 153.449 13.877 164.24 .201 171.348-13.475 178.45-28.225 182.007-44.044 182.007-59.869 182.007-74.55 178.45-88.087 171.348-101.631 164.24-112.561 153.449-120.869 138.969-129.184 124.488-133.338 106.791-133.338 85.875-133.338 64.689-129.253 46.859-121.07 32.379-112.894 17.899-102.033 7.102-88.49 0-74.952-7.108-60.271-10.659-44.446-10.659-28.627-10.659-13.814-7.108 0 0M-99.551-13.072C-115.91-3.959-128.712 9.113-137.963 26.145-147.215 43.17-151.84 63.08-151.84 85.875-151.84 108.399-147.152 128.172-137.762 145.203-128.379 162.229-115.439 175.232-98.948 184.22-82.457 193.201-64.023 197.694-43.642 197.694-23.266 197.694-4.896 193.201 11.464 184.22 27.816 175.232 40.625 162.298 49.876 145.405 59.127 128.511 63.753 108.664 63.753 85.875 63.753 63.08 59.059 43.17 49.675 26.145 40.285 9.113 27.352-3.959 10.86-13.072-5.631-22.191-24.071-26.748-44.446-26.748-64.828-26.748-83.198-22.191-99.551-13.072" fill="#212121"/>
<path transform="matrix(1,0,0,-1,0,3000)" d="M1691.863 1340.517H1673.7621V1638.164H1691.863Z" fill="#212121"/>
<path transform="matrix(1,0,0,-1,1966.781,1493.3635)" d="M0 0C-7.643 13.406-18.037 23.392-31.173 29.966-44.314 36.534-58.524 39.821-73.809 39.821-89.094 39.821-103.24 36.534-116.243 29.966-129.253 23.392-139.843 13.406-148.02 0-156.202-13.412-160.558-29.765-161.092-49.071H10.257C11.061-29.765 7.642-13.412 0 0M27.552-63.954H-161.092C-160.558-83.531-156.265-100.022-148.221-113.428-140.176-126.839-129.586-136.895-116.444-143.595-103.31-150.301-88.961-153.65-73.406-153.65-51.957-153.65-33.988-148.358-19.508-137.762-5.028-127.172 4.085-112.762 7.843-94.523H26.748C22.455-116.784 11.463-134.814-6.234-148.622-23.933-162.437-46.325-169.337-73.406-169.337-93.788-169.337-112.021-164.78-128.109-155.661-144.198-146.548-156.806-133.476-165.919-116.444-175.038-99.419-179.595-79.509-179.595-56.714-179.595-33.925-175.106-14.078-166.12 2.816-157.139 19.709-144.601 32.644-128.512 41.631-112.423 50.612-94.059 55.105-73.406 55.105-52.491 55.105-34.328 50.612-18.905 41.631-3.488 32.644 8.245 20.715 16.29 5.833 24.334-9.05 28.356-25.076 28.356-42.233 28.356-51.887 28.086-59.127 27.552-63.954" fill="#212121"/>
<path transform="matrix(1,0,0,-1,2203.49,1659.4827)" d="M0 0-95.327 100.154V0H-113.428V297.647H-95.327V119.461L-1.608 218.409H23.731L-82.054 109.808 24.938 0Z" fill="#212121"/>
<path transform="matrix(1,0,0,-1,2333.0057,1456.7605)" d="M0 0V-144.4C0-160.489 2.947-171.549 8.849-177.583 14.744-183.617 25.202-186.633 40.223-186.633H64.759V-202.722H37.407C18.364-202.722 4.355-198.235-4.626-189.248-13.612-180.267-18.101-165.315-18.101-144.4V0H-51.083V15.687H-18.101V71.194H0V15.687H64.759V0Z" fill="#212121"/>
<path transform="matrix(1,0,0,-1,0,3000)" d="M2503.946 1340.517H2485.845V1558.926H2503.946ZM2484.237 1611.819C2481.283 1614.635 2479.812 1618.456 2479.812 1623.282 2479.812 1627.839 2481.283 1631.591 2484.237 1634.545 2487.184 1637.492 2490.804 1638.969 2495.096 1638.969 2499.383 1638.969 2503.003 1637.492 2505.957 1634.545 2508.904 1631.591 2510.382 1627.839 2510.382 1623.282 2510.382 1618.456 2508.904 1614.635 2505.957 1611.819 2503.003 1609.003 2499.383 1607.595 2495.096 1607.595 2490.804 1607.595 2487.184 1609.003 2484.237 1611.819" fill="#212121"/>
<path transform="matrix(1,0,0,-1,2693.7938,1457.1629)" d="M0 0H-56.714V-202.32H-74.813V0H-107.797V16.089H-74.813V31.374C-74.813 54.162-69.051 71.125-57.519 82.255-45.992 93.379-27.087 98.948-.805 98.948V82.858C-21.72 82.858-36.27 78.836-44.445 70.792-52.629 62.747-56.714 49.606-56.714 31.374V16.089H0Z" fill="#212121"/>
</g>
</g>
</svg>
